# xmcd
#
# Track frame offsets:
#	150
#	12921
#	29050
#	47074
#	66220
#	90913
#	108297
#	126292
#	146570
#	161078
#	177984
#	204993
#	225193
#
# Disc length: 3133 seconds
#
# Revision: 1
# Processed by: cddbd v1.4PL0 Copyright (c) Steve Scherf et al.
# Submitted via: CDmax 1.9
#
DISCID=a70c3b0d
DTITLE=Charles Atkins and The Blues Boys - Diggin The Gold
DYEAR=1900
DGENRE=Blues
TTITLE0=Shake, Rattle And Roll
TTITLE1=Motherless Child
TTITLE2=Stormy Monday
TTITLE3=You're A Wonderful One
TTITLE4=Need To Belong
TTITLE5=Kansas City
TTITLE6=Flip, Flop and Fly
TTITLE7=James Infirmary
TTITLE8=Further On Up The Road
TTITLE9=Thank You, Pretty Baby
TTITLE10=Rollin' Time
TTITLE11=Next TIme you See Me
TTITLE12=Life
EXTD=
EXTT0=
EXTT1=
EXTT2=
EXTT3=
EXTT4=
EXTT5=
EXTT6=
EXTT7=
EXTT8=
EXTT9=
EXTT10=
EXTT11=
EXTT12=
PLAYORDER=
